<svg xmlns="http://www.w3.org/2000/svg" viewBox="0 0 44 44" width="44" height="44">
  <rect width="44" height="44" rx="9" fill="#111a45"/>
  <g fill="none" stroke="#00b3ae" stroke-width="2.6" transform="translate(0,1) scale(0.92) translate(2,1)">
    <path d="M31.4 33.6V38a2 2 0 0 1-2 2h-13a2 2 0 0 1-2-2v-3.6A14 14 0 1 1 31.4 33.6Z" stroke-linejoin="round"/>
    <path d="M16.5 17h4.3v12M20.8 22.6h5.6M26.4 22.6v-5.2" stroke-width="2.1" stroke-linecap="round"/>
  </g>
  <g fill="#00b3ae" transform="translate(0,1) scale(0.92) translate(2,1)">
    <circle cx="14.2" cy="17" r="2"/><circle cx="28.6" cy="16.6" r="2"/><circle cx="20.8" cy="29.2" r="2"/>
  </g>
</svg>
